<svg height="512" viewBox="0 0 74 74" width="512" xmlns="http://www.w3.org/2000/svg"><g id="color_line" data-name="color line"><path d="m69.77 41.33v8.56a2.84 2.84 0 0 1 -2.85 2.84h-19.36v-12.8h22.02a5.033 5.033 0 0 1 .19 1.4z" fill="#e1e6e9"/><path d="m67.02 49.89a2.81 2.81 0 0 1 -.036.36h2.75a2.81 2.81 0 0 0 .036-.36v-8.56a5.033 5.033 0 0 0 -.19-1.4h-2.75a5.033 5.033 0 0 1 .19 1.4z" fill="#d5d6db"/><path d="m69.57 39.93h-22.01v-14.86h9.68a4.707 4.707 0 0 1 4.06 2.34l7.77 11.32a4.841 4.841 0 0 1 .5 1.2z" fill="#89c5cd"/><path d="m69.57 39.93h-2.87a5.253 5.253 0 0 0 -.5-1.2l-7.78-11.32a4.694 4.694 0 0 0 -4.06-2.34h2.88a4.707 4.707 0 0 1 4.06 2.34l7.77 11.32a4.841 4.841 0 0 1 .5 1.2z" fill="#80b8bc"/><path d="m47.557 47.174v-28.764a2.148 2.148 0 0 0 -2.057-2.16h-40.654a2.06 2.06 0 0 0 -2.065 2.06v28.753" fill="#bbbbcd"/><path d="m4.84 18.78h40.66a2.137 2.137 0 0 1 2.044 2.1h.016v-2.47a2.145 2.145 0 0 0 -2.06-2.16h-40.65a2.066 2.066 0 0 0 -2.07 2.06v2.53a2.057 2.057 0 0 1 2.06-2.06z" fill="#9297ab"/><path d="m3.7 52.734a.93.93 0 0 1 -.93-.93v-6.704a.93.93 0 0 1 .93-.93h43.857v8.561z" fill="#e1e6e9"/><path d="m47.56 50.125v2.6h19.36a2.831 2.831 0 0 0 2.826-2.6z" fill="#d5d6db"/><path d="m2.771 50.125v1.675a.93.93 0 0 0 .93.93h43.856v-2.605z" fill="#d5d6db"/><circle cx="24.669" cy="30.28" fill="#fcd462" r="8.883"/><path d="m33.55 30.283a8.875 8.875 0 0 1 -3.52 7.08 8.882 8.882 0 0 0 -12.28-12.65 8.877 8.877 0 0 1 15.8 5.57z" fill="#f7be56"/><path d="m24.208 31.727-2.686 3.359a5.778 5.778 0 0 1 -2.628-4.558l4.25-.645a1.4 1.4 0 0 0 -.041.349 1.561 1.561 0 0 0 1.105 1.495z" fill="#e1e6e9"/><path d="m21.521 35.586a.5.5 0 0 1 -.272-.081 6.3 6.3 0 0 1 -2.855-4.953.5.5 0 0 1 .424-.519l4.25-.645a.5.5 0 0 1 .559.62.916.916 0 0 0 -.025.223 1.059 1.059 0 0 0 .751 1.017.5.5 0 0 1 .244.79l-2.684 3.362a.5.5 0 0 1 -.392.186zm-2.087-4.635a5.306 5.306 0 0 0 1.993 3.449l2.01-2.514a2.051 2.051 0 0 1 -.82-1.422z" fill="#323c6b"/><path d="m23.624 29.086-1.567-4.006a5.778 5.778 0 0 1 5.262 0l-1.567 4a1.4 1.4 0 0 0 -.282-.21 1.561 1.561 0 0 0 -1.846.216z" fill="#e1e6e9"/><path d="m25.752 29.586a.5.5 0 0 1 -.349-.142.9.9 0 0 0 -.183-.134 1.057 1.057 0 0 0 -1.257.142.489.489 0 0 1 -.452.121.5.5 0 0 1 -.354-.305l-1.566-4.006a.5.5 0 0 1 .239-.628 6.3 6.3 0 0 1 5.717 0 .5.5 0 0 1 .237.627l-1.566 4a.5.5 0 0 1 -.36.307.516.516 0 0 1 -.106.018zm-1.066-1.422a2.049 2.049 0 0 1 .822.172l1.173-3a5.3 5.3 0 0 0 -3.987 0l1.172 3a2.049 2.049 0 0 1 .821-.171z" fill="#323c6b"/><path d="m30.446 30.528a5.772 5.772 0 0 1 -2.632 4.558l-2.682-3.359a1.565 1.565 0 0 0 1.1-1.495 1.4 1.4 0 0 0 -.041-.349z" fill="#e1e6e9"/><path d="m27.814 35.586a.5.5 0 0 1 -.391-.188l-2.682-3.359a.5.5 0 0 1 .244-.79 1.059 1.059 0 0 0 .751-1.017.916.916 0 0 0 -.025-.223.5.5 0 0 1 .559-.62l4.25.645a.5.5 0 0 1 .424.519 6.3 6.3 0 0 1 -2.859 4.953.5.5 0 0 1 -.271.08zm-1.911-3.7 2.006 2.514a5.3 5.3 0 0 0 2-3.453l-3.182-.482a2.051 2.051 0 0 1 -.827 1.426z" fill="#323c6b"/><circle cx="24.669" cy="30.232" fill="#e1e6e9" r="1.566"/><g fill="#323c6b"><path d="m24.669 32.3a2.066 2.066 0 1 1 2.066-2.065 2.068 2.068 0 0 1 -2.066 2.065zm0-3.131a1.066 1.066 0 1 0 1.066 1.066 1.067 1.067 0 0 0 -1.066-1.068z"/><path d="m66.92 53.23h-19.36a.5.5 0 0 1 -.5-.5v-12.8a.5.5 0 0 1 .5-.5h22.02a.5.5 0 0 1 .48.361 5.541 5.541 0 0 1 .209 1.539v8.56a3.349 3.349 0 0 1 -3.349 3.34zm-18.86-1h18.86a2.348 2.348 0 0 0 2.35-2.34v-8.56a4.73 4.73 0 0 0 -.083-.9h-21.127z"/><path d="m69.57 40.43h-22.01a.5.5 0 0 1 -.5-.5v-14.86a.5.5 0 0 1 .5-.5h9.68a5.233 5.233 0 0 1 4.491 2.587l7.75 11.29a5.376 5.376 0 0 1 .572 1.357.5.5 0 0 1 -.484.626zm-21.51-1h20.806a4.526 4.526 0 0 0 -.229-.449l-7.75-11.288a4.248 4.248 0 0 0 -3.647-2.123h-9.18z"/><path d="m54.913 43.292h-2.86a.5.5 0 0 1 0-1h2.86a.5.5 0 0 1 0 1z"/><path d="m47.557 47.674a.5.5 0 0 1 -.5-.5v-28.763a1.656 1.656 0 0 0 -1.557-1.661h-40.658a1.56 1.56 0 0 0 -1.562 1.56v28.753a.5.5 0 0 1 -1 0v-28.753a2.561 2.561 0 0 1 2.56-2.56h40.66a2.649 2.649 0 0 1 2.555 2.661v28.763a.5.5 0 0 1 -.498.5z"/></g><path d="m6.031 37.052a.6.6 0 0 1 -.6-.6v-.552a.6.6 0 0 1 1.2 0v.555a.6.6 0 0 1 -.6.597z" fill="#fff"/><path d="m6.663 41.969a1.1 1.1 0 0 1 -.772-.333 1.712 1.712 0 0 1 -.46-1.215v-1.721a.6.6 0 0 1 1.2 0v1.719a.538.538 0 0 0 .11.368l3.79-.02a.6.6 0 1 1 0 1.2h-3.868z" fill="#fff"/><path d="m24.669 39.664a9.383 9.383 0 1 1 9.383-9.383 9.394 9.394 0 0 1 -9.383 9.383zm0-17.767a8.383 8.383 0 1 0 8.383 8.383 8.393 8.393 0 0 0 -8.383-8.38z" fill="#323c6b"/><path d="m47.557 53.234h-43.857a1.431 1.431 0 0 1 -1.43-1.43v-6.704a1.431 1.431 0 0 1 1.43-1.43h43.857a.5.5 0 0 1 .5.5v8.561a.5.5 0 0 1 -.5.503zm-43.857-8.56a.43.43 0 0 0 -.43.43v6.7a.43.43 0 0 0 .43.43h43.357v-7.56z" fill="#323c6b"/><circle cx="17.711" cy="52.594" fill="#707583" r="5.988"/><path d="m17.71 59.082a6.489 6.489 0 1 1 6.49-6.488 6.5 6.5 0 0 1 -6.49 6.488zm0-11.977a5.489 5.489 0 1 0 5.49 5.489 5.495 5.495 0 0 0 -5.49-5.494z" fill="#323c6b"/><circle cx="17.711" cy="52.594" fill="#bbbbcd" r="2.885"/><path d="m17.71 55.979a3.385 3.385 0 1 1 3.39-3.385 3.389 3.389 0 0 1 -3.39 3.385zm0-5.771a2.385 2.385 0 1 0 2.39 2.386 2.388 2.388 0 0 0 -2.39-2.386z" fill="#323c6b"/><circle cx="57.386" cy="52.594" fill="#707583" r="5.988"/><path d="m57.386 59.082a6.489 6.489 0 1 1 6.488-6.488 6.5 6.5 0 0 1 -6.488 6.488zm0-11.977a5.489 5.489 0 1 0 5.488 5.489 5.5 5.5 0 0 0 -5.488-5.494z" fill="#323c6b"/><circle cx="57.386" cy="52.594" fill="#bbbbcd" r="2.885"/><path d="m57.386 55.979a3.385 3.385 0 1 1 3.385-3.385 3.389 3.389 0 0 1 -3.385 3.385zm0-5.771a2.385 2.385 0 1 0 2.385 2.385 2.388 2.388 0 0 0 -2.385-2.385z" fill="#323c6b"/></g></svg>